{
  "accessors": [
    {
      "bufferView": 2,
      "componentType": 5126,
      "count": 12248,
      "max": [
        0.019610244780778885,
        -0.02236083894968033,
        0.05474606156349182
      ],
      "min": [
        -0.019943084567785263,
        -0.03139106184244156,
        0.009618118405342102
      ],
      "type": "VEC3"
    },
    {
      "bufferView": 2,
      "byteOffset": 146976,
      "componentType": 5126,
      "count": 12248,
      "max": [
        0.9999856352806091,
        0.9999966621398926,
        0.9999561905860901
      ],
      "min": [
        -0.9999856948852539,
        -0.9999961256980896,
        -0.9999561309814453
      ],
      "type": "VEC3"
    },
    {
      "bufferView": 1,
      "componentType": 5126,
      "count": 12248,
      "max": [
        0.8887667655944824,
        0.8779706954956055
      ],
      "min": [
        0.7147619128227234,
        0.21319839358329773
      ],
      "type": "VEC2"
    },
    {
      "bufferView": 1,
      "byteOffset": 97984,
      "componentType": 5126,
      "count": 12248,
      "max": [
        0.8887667655944824,
        0.8779706954956055
      ],
      "min": [
        0.7147619128227234,
        0.21319839358329773
      ],
      "type": "VEC2"
    },
    {
      "bufferView": 0,
      "componentType": 5125,
      "count": 70644,
      "type": "SCALAR"
    },
    {
      "bufferView": 2,
      "byteOffset": 293952,
      "componentType": 5126,
      "count": 19677,
      "max": [
        0.01881946064531803,
        -0.022706542164087296,
        0.05111582577228546
      ],
      "min": [
        -0.01915230043232441,
        -0.03317075967788696,
        0.01324835978448391
      ],
      "type": "VEC3"
    },
    {
      "bufferView": 2,
      "byteOffset": 530076,
      "componentType": 5126,
      "count": 19677,
      "max": [
        0.999993085861206,
        1.0,
        1.0
      ],
      "min": [
        -0.9999930262565613,
        -1.0,
        -1.0
      ],
      "type": "VEC3"
    },
    {
      "bufferView": 1,
      "byteOffset": 195968,
      "componentType": 5126,
      "count": 19677,
      "max": [
        0.49394258856773376,
        0.9623250961303711
      ],
      "min": [
        0.1622915416955948,
        0.1305256336927414
      ],
      "type": "VEC2"
    },
    {
      "bufferView": 1,
      "byteOffset": 353384,
      "componentType": 5126,
      "count": 19677,
      "max": [
        0.49394258856773376,
        0.9623250961303711
      ],
      "min": [
        0.1622915416955948,
        0.1305256336927414
      ],
      "type": "VEC2"
    },
    {
      "bufferView": 0,
      "byteOffset": 282576,
      "componentType": 5125,
      "count": 108168,
      "type": "SCALAR"
    },
    {
      "bufferView": 2,
      "byteOffset": 766200,
      "componentType": 5126,
      "count": 1026,
      "max": [
        0.011073697358369827,
        -0.021575743332505226,
        0.043422210961580276
      ],
      "min": [
        -0.011406537145376205,
        -0.02475525066256523,
        0.020941976457834244
      ],
      "type": "VEC3"
    },
    {
      "bufferView": 2,
      "byteOffset": 778512,
      "componentType": 5126,
      "count": 1026,
      "max": [
        1.0,
        1.0,
        1.0
      ],
      "min": [
        -1.0,
        -1.0,
        -1.0
      ],
      "type": "VEC3"
    },
    {
      "bufferView": 1,
      "byteOffset": 510800,
      "componentType": 5126,
      "count": 1026,
      "max": [
        0.3407708406448364,
        0.2895263135433197
      ],
      "min": [
        0.24675476551055908,
        0.19551023840904236
      ],
      "type": "VEC2"
    },
    {
      "bufferView": 1,
      "byteOffset": 519008,
      "componentType": 5126,
      "count": 1026,
      "max": [
        0.3407708406448364,
        0.2895263135433197
      ],
      "min": [
        0.24675476551055908,
        0.19551023840904236
      ],
      "type": "VEC2"
    },
    {
      "bufferView": 0,
      "byteOffset": 715248,
      "componentType": 5125,
      "count": 5760,
      "type": "SCALAR"
    },
    {
      "bufferView": 2,
      "byteOffset": 790824,
      "componentType": 5126,
      "count": 65532,
      "max": [
        0.01026262529194355,
        0.03282645717263222,
        0.0665484219789505
      ],
      "min": [
        -0.01059546135365963,
        -0.026389827951788902,
        4.061311483383179e-05
      ],
      "type": "VEC3"
    },
    {
      "bufferView": 2,
      "byteOffset": 1577208,
      "componentType": 5126,
      "count": 65532,
      "max": [
        1.0,
        0.9999998807907104,
        0.9999999403953552
      ],
      "min": [
        -1.0,
        -0.9999997615814209,
        -0.999929666519165
      ],
      "type": "VEC3"
    },
    {
      "bufferView": 3,
      "componentType": 5126,
      "count": 65532,
      "max": [
        1.0,
        0.9999968409538269,
        0.9999015927314758,
        1.0
      ],
      "min": [
        -1.0,
        -1.0,
        -0.9999650120735168,
        -1.0
      ],
      "type": "VEC4"
    },
    {
      "bufferView": 1,
      "byteOffset": 527216,
      "componentType": 5126,
      "count": 65532,
      "max": [
        0.8699905872344971,
        0.9873554110527039
      ],
      "min": [
        0.024137940257787704,
        0.013142416253685951
      ],
      "type": "VEC2"
    },
    {
      "bufferView": 1,
      "byteOffset": 1051472,
      "componentType": 5126,
      "count": 65532,
      "max": [
        0.8699905872344971,
        0.9873554110527039
      ],
      "min": [
        0.024137940257787704,
        0.013142416253685951
      ],
      "type": "VEC2"
    },
    {
      "bufferView": 0,
      "byteOffset": 738288,
      "componentType": 5125,
      "count": 365019,
      "type": "SCALAR"
    },
    {
      "bufferView": 2,
      "byteOffset": 2363592,
      "componentType": 5126,
      "count": 34131,
      "max": [
        0.008768219500780106,
        0.031202282756567,
        0.0665467381477356
      ],
      "min": [
        -0.009100647643208504,
        -0.026394572108983994,
        9.004026651382446e-06
      ],
      "type": "VEC3"
    },
    {
      "bufferView": 2,
      "byteOffset": 2773164,
      "componentType": 5126,
      "count": 34131,
      "max": [
        1.0,
        0.9999999403953552,
        0.9999992251396179
      ],
      "min": [
        -1.0,
        -1.0,
        -0.9999856948852539
      ],
      "type": "VEC3"
    },
    {
      "bufferView": 3,
      "byteOffset": 1048512,
      "componentType": 5126,
      "count": 34131,
      "max": [
        1.0,
        1.0,
        0.9991555213928223,
        1.0
      ],
      "min": [
        -1.0,
        -1.0,
        -0.999997079372406,
        -1.0
      ],
      "type": "VEC4"
    },
    {
      "bufferView": 1,
      "byteOffset": 1575728,
      "componentType": 5126,
      "count": 34131,
      "max": [
        0.9493739008903503,
        0.965666651725769
      ],
      "min": [
        0.031410783529281616,
        0.013229578733444214
      ],
      "type": "VEC2"
    },
    {
      "bufferView": 1,
      "byteOffset": 1848776,
      "componentType": 5126,
      "count": 34131,
      "max": [
        0.9493739008903503,
        0.965666651725769
      ],
      "min": [
        0.031410783529281616,
        0.013229578733444214
      ],
      "type": "VEC2"
    },
    {
      "bufferView": 0,
      "byteOffset": 2198364,
      "componentType": 5125,
      "count": 189999,
      "type": "SCALAR"
    },
    {
      "bufferView": 2,
      "byteOffset": 3182736,
      "componentType": 5126,
      "count": 1561,
      "max": [
        0.010388093069195747,
        -0.022321650758385658,
        0.053252220153808594
      ],
      "min": [
        -0.010720930993556976,
        -0.024344228208065033,
        0.011251188814640045
      ],
      "type": "VEC3"
    },
    {
      "bufferView": 2,
      "byteOffset": 3201468,
      "componentType": 5126,
      "count": 1561,
      "max": [
        1.0,
        0.998595118522644,
        0.999279260635376
      ],
      "min": [
        -1.0,
        -1.0,
        -0.9999291300773621
      ],
      "type": "VEC3"
    },
    {
      "bufferView": 1,
      "byteOffset": 2121824,
      "componentType": 5126,
      "count": 1561,
      "max": [
        0.7754761576652527,
        0.9525910019874573
      ],
      "min": [
        0.7311249375343323,
        0.813137412071228
      ],
      "type": "VEC2"
    },
    {
      "bufferView": 0,
      "byteOffset": 2958360,
      "componentType": 5125,
      "count": 6084,
      "type": "SCALAR"
    }
  ],
  "asset": {
    "extras": {
      "author": "Avinasha3899 (https://sketchfab.com/Avinasha3899)",
      "license": "CC-BY-4.0 (http://creativecommons.org/licenses/by/4.0/)",
      "source": "https://sketchfab.com/3d-models/leather-watch-0ed72f23db1641ffb08c442eae43c332",
      "title": "Leather watch"
    },
    "generator": "Sketchfab-15.36.0",
    "version": "2.0"
  },
  "bufferViews": [
    {
      "buffer": 0,
      "byteLength": 2982696,
      "name": "floatBufferViews",
      "target": 34963
    },
    {
      "buffer": 0,
      "byteLength": 2134312,
      "byteOffset": 2982696,
      "byteStride": 8,
      "name": "floatBufferViews",
      "target": 34962
    },
    {
      "buffer": 0,
      "byteLength": 3220200,
      "byteOffset": 5117008,
      "byteStride": 12,
      "name": "floatBufferViews",
      "target": 34962
    },
    {
      "buffer": 0,
      "byteLength": 1594608,
      "byteOffset": 8337208,
      "byteStride": 16,
      "name": "floatBufferViews",
      "target": 34962
    }
  ],
  "buffers": [
    {
      "byteLength": 9931816,
      "uri": "scene.bin"
    }
  ],
  "extensionsUsed": [
    "KHR_materials_specular"
  ],
  "images": [
    {
      "uri": "textures/metal.001_baseColor.jpeg"
    },
    {
      "uri": "textures/metal.001_metallicRoughness.png"
    },
    {
      "uri": "textures/base.001_metallicRoughness.png"
    },
    {
      "uri": "textures/leather_baseColor.png"
    },
    {
      "uri": "textures/leather_metallicRoughness.png"
    },
    {
      "uri": "textures/leather_normal.png"
    }
  ],
  "materials": [
    {
      "doubleSided": true,
      "name": "metal.001",
      "pbrMetallicRoughness": {
        "baseColorTexture": {
          "index": 0
        },
        "metallicRoughnessTexture": {
          "index": 1
        }
      }
    },
    {
      "doubleSided": true,
      "name": "base.001",
      "pbrMetallicRoughness": {
        "baseColorTexture": {
          "index": 0
        },
        "metallicFactor": 0.0,
        "metallicRoughnessTexture": {
          "index": 2
        }
      }
    },
    {
      "doubleSided": true,
      "name": "BACK_METAL.001",
      "pbrMetallicRoughness": {
        "baseColorTexture": {
          "index": 0
        },
        "metallicRoughnessTexture": {
          "index": 2
        },
        "roughnessFactor": 0.0
      }
    },
    {
      "doubleSided": true,
      "extensions": {
        "KHR_materials_specular": {
          "specularColorFactor": [
            1.0,
            1.0,
            1.0
          ],
          "specularFactor": 1.0
        }
      },
      "name": "leather",
      "normalTexture": {
        "index": 5
      },
      "pbrMetallicRoughness": {
        "baseColorTexture": {
          "index": 3
        },
        "metallicFactor": 0.5958113396155111,
        "metallicRoughnessTexture": {
          "index": 4
        }
      }
    },
    {
      "doubleSided": true,
      "name": "material",
      "pbrMetallicRoughness": {
        "baseColorFactor": [
          0.8,
          0.8,
          0.8,
          1.0
        ],
        "roughnessFactor": 0.0
      }
    }
  ],
  "meshes": [
    {
      "name": "Cylinder.004_metal.001_0",
      "primitives": [
        {
          "attributes": {
            "NORMAL": 1,
            "POSITION": 0,
            "TEXCOORD_0": 2,
            "TEXCOORD_1": 3
          },
          "indices": 4,
          "material": 0,
          "mode": 4
        }
      ]
    },
    {
      "name": "Cylinder.004_base.001_0",
      "primitives": [
        {
          "attributes": {
            "NORMAL": 6,
            "POSITION": 5,
            "TEXCOORD_0": 7,
            "TEXCOORD_1": 8
          },
          "indices": 9,
          "material": 1,
          "mode": 4
        }
      ]
    },
    {
      "name": "Cylinder.004_BACK METAL.001_0",
      "primitives": [
        {
          "attributes": {
            "NORMAL": 11,
            "POSITION": 10,
            "TEXCOORD_0": 12,
            "TEXCOORD_1": 13
          },
          "indices": 14,
          "material": 2,
          "mode": 4
        }
      ]
    },
    {
      "name": "Cylinder.004_leather_0",
      "primitives": [
        {
          "attributes": {
            "NORMAL": 16,
            "POSITION": 15,
            "TANGENT": 17,
            "TEXCOORD_0": 18,
            "TEXCOORD_1": 19
          },
          "indices": 20,
          "material": 3,
          "mode": 4
        }
      ]
    },
    {
      "name": "Cylinder.004_leather_0",
      "primitives": [
        {
          "attributes": {
            "NORMAL": 22,
            "POSITION": 21,
            "TANGENT": 23,
            "TEXCOORD_0": 24,
            "TEXCOORD_1": 25
          },
          "indices": 26,
          "material": 3,
          "mode": 4
        }
      ]
    },
    {
      "name": "Cylinder.001_pin_0",
      "primitives": [
        {
          "attributes": {
            "NORMAL": 28,
            "POSITION": 27,
            "TEXCOORD_0": 29
          },
          "indices": 30,
          "material": 4,
          "mode": 4
        }
      ]
    }
  ],
  "nodes": [
    {
      "children": [
        1
      ],
      "matrix": [
        1.0,
        0.0,
        0.0,
        0.0,
        0.0,
        2.220446049250313e-16,
        -1.0,
        0.0,
        0.0,
        1.0,
        2.220446049250313e-16,
        0.0,
        0.0,
        0.0,
        0.0,
        1.0
      ],
      "name": "Sketchfab_model"
    },
    {
      "children": [
        2
      ],
      "matrix": [
        0.009999999776482582,
        0.0,
        0.0,
        0.0,
        0.0,
        0.0,
        0.009999999776482582,
        0.0,
        0.0,
        -0.009999999776482582,
        0.0,
        0.0,
        0.0,
        0.0,
        0.0,
        1.0
      ],
      "name": "ed0f44540cb44b47b35ff1cc9b2c251c.fbx"
    },
    {
      "children": [
        3,
        9
      ],
      "name": "RootNode"
    },
    {
      "children": [
        4,
        5,
        6,
        7,
        8
      ],
      "matrix": [
        100.0,
        0.0,
        0.0,
        0.0,
        0.0,
        -1.629206793918314e-05,
        -99.99999999999868,
        0.0,
        0.0,
        99.99999999999868,
        -1.629206793918314e-05,
        0.0,
        0.0,
        0.0,
        0.0,
        1.0
      ],
      "name": "Cylinder.004"
    },
    {
      "mesh": 0,
      "name": "Cylinder.004_metal.001_0"
    },
    {
      "mesh": 1,
      "name": "Cylinder.004_base.001_0"
    },
    {
      "mesh": 2,
      "name": "Cylinder.004_BACK METAL.001_0"
    },
    {
      "mesh": 3,
      "name": "Cylinder.004_leather_0"
    },
    {
      "mesh": 4,
      "name": "Cylinder.004_leather_0"
    },
    {
      "children": [
        10
      ],
      "matrix": [
        100.0,
        0.0,
        0.0,
        0.0,
        0.0,
        -1.629206793918314e-05,
        -99.99999999999868,
        0.0,
        0.0,
        99.99999999999868,
        -1.629206793918314e-05,
        0.0,
        0.0,
        0.0,
        0.0,
        1.0
      ],
      "name": "Cylinder.001"
    },
    {
      "mesh": 5,
      "name": "Cylinder.001_pin_0"
    }
  ],
  "samplers": [
    {
      "magFilter": 9729,
      "minFilter": 9987,
      "wrapS": 10497,
      "wrapT": 10497
    }
  ],
  "scene": 0,
  "scenes": [
    {
      "name": "Sketchfab_Scene",
      "nodes": [
        0
      ]
    }
  ],
  "textures": [
    {
      "sampler": 0,
      "source": 0
    },
    {
      "sampler": 0,
      "source": 1
    },
    {
      "sampler": 0,
      "source": 2
    },
    {
      "sampler": 0,
      "source": 3
    },
    {
      "sampler": 0,
      "source": 4
    },
    {
      "sampler": 0,
      "source": 5
    }
  ]
}
